<?xml version="1.0" encoding="UTF-8" standalone="no"?>
<!-- Created with Inkscape (http://www.inkscape.org/) -->

<svg
   xmlns:dc="http://purl.org/dc/elements/1.1/"
   xmlns:cc="http://creativecommons.org/ns#"
   xmlns:rdf="http://www.w3.org/1999/02/22-rdf-syntax-ns#"
   xmlns:svg="http://www.w3.org/2000/svg"
   xmlns="http://www.w3.org/2000/svg"
   xmlns:sodipodi="http://sodipodi.sourceforge.net/DTD/sodipodi-0.dtd"
   xmlns:inkscape="http://www.inkscape.org/namespaces/inkscape"
   width="552.80951"
   height="520.00079"
   viewBox="0 0 146.26418 137.58355"
   version="1.1"
   id="svg8"
   inkscape:version="0.92.3 (2405546, 2018-03-11)"
   sodipodi:docname="moose-min.svg">
  <defs
     id="defs2" />
  <sodipodi:namedview
     id="base"
     pagecolor="#ffffff"
     bordercolor="#666666"
     borderopacity="1.0"
     inkscape:pageopacity="0.0"
     inkscape:pageshadow="2"
     inkscape:zoom="0.5"
     inkscape:cx="-456.11696"
     inkscape:cy="205.62681"
     inkscape:document-units="px"
     inkscape:current-layer="layer1"
     showgrid="false"
     inkscape:window-width="1920"
     inkscape:window-height="995"
     inkscape:window-x="0"
     inkscape:window-y="0"
     inkscape:window-maximized="1"
     units="px"
     fit-margin-top="10"
     fit-margin-left="10"
     fit-margin-right="10"
     fit-margin-bottom="10" />
  <metadata
     id="metadata5">
    <rdf:RDF>
      <cc:Work
         rdf:about="">
        <dc:format>image/svg+xml</dc:format>
        <dc:type
           rdf:resource="http://purl.org/dc/dcmitype/StillImage" />
        <dc:title></dc:title>
      </cc:Work>
    </rdf:RDF>
  </metadata>
  <g
     inkscape:label="Layer 1"
     inkscape:groupmode="layer"
     id="layer1"
     transform="translate(-2.2805867,0.58227304)">
    <path
       style="fill:#ab7833;fill-opacity:1;stroke-width:0.17657226"
       d="m 33.740896,134.22003 -0.07592,-0.13245 0.147518,-1.14773 0.147517,-1.14771 -0.581612,-0.52972 -0.581612,-0.52972 -1.264188,-1.11297 -1.264174,-1.11296 -0.537804,-0.78166 -0.537789,-0.78165 -0.701759,-1.74914 -0.701758,-1.74915 -0.523575,-2.00655 -0.523559,-2.00653 -0.446117,-2.59847 -0.446131,-2.59846 -0.281133,-0.8447 -0.281148,-0.8447 -1.205465,-2.56029 -1.205465,-2.5603 -0.298913,-1.04052 -0.298913,-1.04053 0.08994,-0.67052 0.08994,-0.67051 0.903256,-1.4954 0.903271,-1.4954 0.268097,-0.75988 0.268111,-0.759875 0.108736,-1.286712 0.108736,-1.286711 h -0.117685 -0.117686 l -1.56947,0.78824 -1.569485,0.78824 -1.478216,0.873127 -1.478215,0.873111 -1.328013,1.39002 -1.328014,1.39002 -0.580866,0.84426 -0.580881,0.84427 -0.492713,1.09252 -0.492713,1.09253 -0.716884,2.38372 -0.716883,2.38373 -0.458556,1.76571 -0.458557,1.76574 -0.450293,2.38372 -0.450263,2.38372 -0.09665,3.18563 -0.09665,3.18564 0.828931,1.21076 0.828931,1.21078 0.456572,0.90076 0.456588,0.90077 0.599331,1.39997 0.599317,1.39995 -0.08949,0.23333 -0.0895,0.23334 H 11.294765 8.5585664 l -0.2132811,-0.39728 -0.213281,-0.3973 -0.5433527,-1.67743 -0.5433677,-1.67743 -1.0594394,-0.0883 -1.0594245,-0.0883 0.029682,-2.29543 0.029682,-2.29544 0.7052041,-2.29544 0.7052041,-2.29543 0.2293304,-0.97116 0.2293453,-0.97113 0.00746,-8.03406 0.00746,-8.03403 0.4013693,-0.64544 0.4013692,-0.64546 1.187775,-0.95552 1.1877746,-0.955524 1.236013,-0.866936 1.236012,-0.866951 1.090256,-1.105992 1.09027,-1.105977 0.342571,-0.928687 0.342571,-0.928688 0.224886,-1.215339 0.22487,-1.215324 -0.100681,-2.227824 -0.100682,-2.227839 -0.546813,-2.913429 -0.546813,-2.913443 -0.205824,-2.353564 -0.205807,-2.353564 0.203704,-2.237325 0.203705,-2.237311 0.444655,-2.73687 0.44464,-2.73687 0.04818,-0.79458 0.04818,-0.794564 -0.264874,0.01924 -0.264845,0.01924 -2.246111,0.41263 -2.246095,0.412631 -0.111719,-0.111719 -0.11172,-0.11172 0.379026,-2.35076 0.37901,-2.350759 0.184299,-0.470892 0.184285,-0.470892 1.441388,-1.309622 1.441374,-1.309607 0.902137,-0.646063 0.902152,-0.646063 1.746432,-0.813657 1.746446,-0.813642 4.326029,-1.907104 4.326015,-1.90709 1.187804,-0.363572 1.187805,-0.363573 3.72358,-0.625002 3.723581,-0.625001 h 1.434198 1.434184 l 3.012753,0.442462 3.012753,0.442447 2.913444,0.723267 2.913443,0.723253 2.560297,0.0883 2.560297,0.0883 4.841669,-0.291052 4.841653,-0.291052 0.146473,-0.09054 0.146474,-0.09054 v -1.215578 -1.215578 l 0.397282,-0.279925 0.397297,-0.27991 1.412571,-0.473293 1.412571,-0.473294 3.00173,-1.04e-4 3.00173,-1.04e-4 1.734499,0.378697 1.734499,0.378712 2.674656,0.749534 2.674656,0.749549 2.719598,1.396864 2.719583,1.396865 1.081873,0.405993 1.081858,0.405993 1.324299,0.20642 1.324284,0.20642 2.383724,-0.0075 2.383714,-0.0075 1.62517,-0.340632 1.62517,-0.340618 0.93513,-0.501021 0.93514,-0.501037 1.72159,-1.734006 1.72158,-1.734022 v -0.228131 -0.228152 l -1.54503,-0.124845 -1.54499,-0.124845 -1.50059,-0.261146 -1.5006,-0.261146 -0.17265,-0.17265 -0.17265,-0.172665 1.05523,-0.951554 1.05525,-0.951553 -0.98122,-0.439092 -0.98121,-0.439091 -0.75875,-0.227317 -0.75875,-0.227331 -0.0917,-0.238862 -0.0917,-0.238862 0.55307,-0.889697 0.55306,-0.889683 -0.0834,-0.134988 -0.0834,-0.134988 -1.99551,-0.106946 -1.99552,-0.10687 L 96.477622,38.759396 94.096479,38.14491 90.54352,36.985848 86.990562,35.826786 85.260687,35.10683 83.530812,34.386874 82.280466,33.763618 81.030134,33.140361 80.441989,32.584553 79.853859,32.028746 78.390365,29.821595 76.926872,27.61443 75.521714,26.273291 74.116526,24.932152 73.003435,24.176264 71.890343,23.420376 70.418601,22.730684 68.946859,22.041007 67.59161,21.694394 66.236345,21.347781 62.862332,20.991785 59.488318,20.63579 58.528442,20.35846 57.568565,20.081131 56.288238,18.79248 l -1.280313,-1.28865 -1.511671,-0.948153 -1.511687,-0.948152 -2.83e-4,-0.199186 -2.83e-4,-0.199186 1.074802,-0.401951 1.074803,-0.401951 -0.08785,-0.370016 -0.08785,-0.370016 -0.468953,-1.324285 -0.468938,-1.324299 -0.102173,-1.1918617 -0.102173,-1.191862 h 0.241621 0.241621 l 0.983607,1.03368 0.983623,1.0336647 0.862118,1.261772 0.862133,1.261773 h 0.298331 0.298346 l 1.713408,-0.811659 1.713437,-0.811658 0.110825,0.110824 0.110824,0.110825 -0.337037,1.892741 -0.337068,1.89274 -0.0075,0.692108 -0.0075,0.692108 0.529704,0.145727 0.52972,0.145728 2.470743,0.359038 2.470757,0.359053 0.206032,-0.281759 0.206017,-0.28176 0.118879,-1.024462 0.118879,-1.024447 -0.17453,-0.596915 -0.174559,-0.5969 -0.696837,-1.589145 -0.696851,-1.589159 -0.391599,-1.1856417 -0.3916,-1.185642 0.05638,-0.488552 0.05653,-0.488538 0.504064,-0.17626 0.50405,-0.17626 0.329908,0.407411 0.329892,0.40741 0.331206,0.454678 0.331205,0.454663 0.203273,-0.125591 0.203272,-0.125591 0.01492,-1.358009 0.01492,-1.358023 0.127679,-0.971138 0.127679,-0.971153 0.669078,-1.033516 0.669078,-1.033516 0.18612,0.18612 0.186119,0.186119 0.846844,3.207016 0.84683,3.207017 0.1062,0.1062 0.106201,0.1062 1.471414,-0.302865 1.471399,-0.30288 h 0.217487 0.217487 l -0.08532,0.485584 -0.08532,0.485569 -0.468669,1.6774307 -0.468669,1.677446 -0.109333,1.356756 -0.109333,1.356756 0.21783,1.10723 0.217831,1.107229 0.362618,0.979163 0.362633,0.979177 2.578971,2.637129 2.578972,2.637128 1.147711,1.168011 1.147726,1.168027 0.818385,0.394359 0.8184,0.394358 0.918739,0.108737 0.918739,0.108736 1.13891,-1.19046 1.138911,-1.19046 0.219084,0.08412 0.219083,0.08413 0.738943,1.491267 0.738944,1.491252 0.881673,0.824709 0.881673,0.824695 h 0.171323 0.171323 l 0.375415,-0.477276 0.375431,-0.477275 -0.110824,-0.714587 -0.110825,-0.714586 -0.601927,-1.236012 -0.601912,-1.235998 -0.864937,-1.560804 -0.864923,-1.56079 -0.452411,-1.7058 -0.452411,-1.705786 -0.572588,-3.045955 -0.572588,-3.045956 0.513626,-0.536119 0.513641,-0.536119 0.411198,-0.103217 0.411199,-0.103217 0.259818,0.3304 0.259804,0.330414 0.375475,0.706294 0.375461,0.706278 0.496636,2.512149 0.496652,2.512149 0.535551,1.28416 0.535537,1.284161 1.519294,2.030578 1.519278,2.030577 0.44109,0.866653 0.44109,0.866667 0.408171,1.927241 0.408171,1.92724 0.32512,0.246872 0.325134,0.246886 1.283878,0.541474 1.28387,0.541473 0.96964,0.194726 0.96965,0.194741 1.10135,-0.273646 1.10135,-0.273645 0.99768,-0.375282 0.99769,-0.375281 0.0959,-0.391182 0.0959,-0.391197 0.29452,-2.118864 0.29451,-2.118864 -0.10113,-1.500872 -0.10113,-1.500858 -0.34737,-1.765732 -0.34736,-1.765717 -0.21167,-1.843683 -0.21166,-1.843667 0.11455,-1.374073 0.11456,-1.374074 0.10336,-0.269558 0.10352,-0.269543 h 0.21604 0.21603 l 0.60379,0.838715 0.60379,0.838715 0.0899,2.207151 0.0899,2.20715 0.15046,0.26486 0.15045,0.26486 0.72934,1.103575 0.72936,1.103576 h 0.31124 0.31125 l 1.91943,-0.706278 1.91942,-0.706293 h 0.26799 0.268 l 0.10724,0.279298 0.10724,0.279298 v 0.865877 0.865878 l -1.10357,0.553182 -1.10358,0.553197 -0.0658,0.05951 -0.0658,0.05951 -0.41987,1.616545 -0.41988,1.616529 v 1.280954 1.280969 l 0.33468,0.421088 0.33467,0.421103 0.53209,0.309488 0.53211,0.309473 0.42935,-0.51027 0.42935,-0.510254 0.81698,-1.581821 0.81697,-1.58182 0.52292,-1.57226 0.5229,-1.572274 0.21222,-1.475591 0.21223,-1.47559 -0.0914,-1.614426 -0.0914,-1.614427 -0.83972,-2.648583 -0.83971,-2.648584 -0.18109,-0.750176 -0.1811,-0.750175 0.11485,-0.114852 0.11486,-0.114702 0.7499,0.511806 0.74989,0.511805 1.38019,1.311249 1.38021,1.311248 0.86113,1.287502 0.86113,1.287502 0.21184,1.020375 0.21182,1.02039 -0.0862,2.296033 -0.0862,2.296049 -0.39665,1.03465 -0.39668,1.034664 -0.68293,1.205181 -0.68293,1.205182 -0.97456,1.510717 -0.97458,1.510702 v 0.312277 0.312292 l 0.36033,0.22502 0.36032,0.225035 0.165,-0.102024 0.16502,-0.102024 0.76758,-1.007578 0.7676,-1.007577 0.65611,-1.073848 0.65612,-1.073848 0.50169,-1.344793 0.50169,-1.344779 0.28818,-1.201095 0.28817,-1.20111 0.43275,-2.84492 0.43275,-2.84492 0.36561,-0.977134 0.36558,-0.977119 0.6783,-1.033695 0.67831,-1.03368 0.77261,-0.73966 0.77262,-0.73966 1.04904,-0.628775 1.04905,-0.628776 h 0.34196 0.34196 l -0.11381,0.711872 -0.11381,0.711871 -0.44242,1.105142 -0.4424,1.105127 -0.88248,1.493728 -0.88246,1.493713 -0.2613,0.870769 -0.26128,0.870769 v 0.873887 0.873887 l 0.27234,1.712975 0.27233,1.712976 -2.47948,4.334963 -2.4795,4.334964 v 0.202304 0.202303 l 3.13417,-0.109333 3.13415,-0.109333 1.68683,-0.238951 1.68682,-0.238966 1.75634,-0.644378 1.75633,-0.644377 1.30781,-0.431544 1.3078,-0.431559 1.25249,-0.194025 1.2525,-0.194024 1.25181,0.211849 1.25181,0.211849 0.54845,0.333532 0.54847,0.333547 0.28752,0.438808 0.28753,0.438808 0.24162,0.915964 0.24162,0.91595 -0.73875,0.640111 -0.73876,0.640097 -1.21985,1.165893 -1.21984,1.165894 0.11962,0.193607 0.11963,0.193592 1.49596,-0.105604 1.49597,-0.105604 v 0.299853 0.299852 l -0.28871,0.5651 -0.28871,0.565085 -0.62869,0.953194 -0.6287,0.95318 -1.02475,0.662321 -1.02474,0.662336 -0.88924,0.31975 -0.88922,0.319765 -0.23583,0.271885 -0.23583,0.271885 -0.38947,1.05944 -0.38945,1.059424 -0.35143,0.569649 -0.35143,0.569665 -2.03689,1.707128 -2.03687,1.707143 -0.33793,0.548364 -0.33792,0.548365 -0.89765,2.825156 -0.89765,2.825157 -0.4604,0.854497 -0.46044,0.854496 -0.90451,0.822949 -0.90452,0.822935 -2.3587,1.236012 -2.35868,1.235998 -0.8402,0.658831 -0.84021,0.658831 -0.48748,0.831839 -0.48749,0.831824 -0.90788,2.217353 -0.9079,2.217353 -0.48976,0.971153 -0.48974,0.971153 -0.94092,1.449756 -0.94092,1.449771 -1.36791,1.431767 -1.3679,1.431783 -1.15675,0.871828 -1.15674,0.871844 -0.71648,0.351237 -0.71646,0.351252 -2.12319,0.323763 -2.12319,0.323762 -0.99586,-0.355548 -0.99585,-0.355563 -0.48907,0.253196 -0.48908,0.253181 -1.48558,1.412586 -1.485594,1.412571 -2.532279,2.951434 -2.532286,2.951434 -0.927583,0.693912 -0.927584,0.693928 -2.02828,1.127694 -2.028296,1.127679 -0.123353,0.435855 -0.123354,0.43584 -0.343138,1.500857 -0.343123,1.500873 -0.796205,2.20715 -0.796206,2.207151 -0.557746,2.71591 -0.557717,2.71591 -0.525603,2.13984 -0.525603,2.1398 -0.285458,2.29545 -0.285474,2.29544 -0.01939,4.59088 -0.01939,4.59087 0.474561,1.10689 0.474546,1.1069 1.143371,1.71827 1.143386,1.71825 1.074802,1.57811 1.074803,1.57811 v 0.14349 0.14349 l -1.89817,-0.0174 -1.89814,-0.0174 -0.971152,-0.115 -0.971138,-0.115 -0.711902,-1.41305 -0.711901,-1.41304 -0.591173,-0.85925 -0.591187,-0.85924 -1.124786,-1.19235 -1.124786,-1.19234 1.65e-4,-0.24338 1.79e-4,-0.24339 0.43481,-1.76573 0.43481,-1.76572 0.28361,-2.1888 0.283609,-2.18882 0.03102,-2.04892 0.03102,-2.04893 -0.325537,-1.41257 -0.325537,-1.41258 -0.147518,-0.15601 -0.147368,-0.156 -0.367436,0.59744 -0.36742,0.59743 -0.526006,1.63173 -0.525991,1.63175 -0.282848,1.54656 -0.282834,1.54657 0.0045,2.91343 0.0045,2.91344 0.176155,1.19898 0.176141,1.19896 0.362603,0.74333 0.362603,0.74333 2.118954,2.38372 2.118953,2.38373 0.003,0.22072 0.003,0.22071 -2.781021,0.003 -2.781006,0.003 -0.353146,0.0943 -0.353147,0.0943 -0.299703,-0.22918 -0.299703,-0.22917 -0.165312,-1.54468 -0.165311,-1.54466 -1.098639,-1.17444 -1.098638,-1.17446 -0.333845,-0.54747 -0.333831,-0.54747 -6.71e-4,-0.74355 -6.56e-4,-0.74355 0.350118,-3.05275 0.350134,-3.05275 0.342526,-4.14946 0.342542,-4.14944 0.214951,-2.66857 0.214967,-2.66857 -0.09934,-3.95289 -0.09934,-3.952883 -0.448727,-2.913443 -0.448742,-2.913444 -0.117387,-0.659323 -0.117387,-0.659308 -0.228063,-0.189282 -0.228062,-0.189281 -1.735737,-0.184538 -1.735722,-0.184524 -2.030577,0.106797 -2.030592,0.106798 -1.059425,0.241486 -1.059439,0.241487 -2.030577,0.544382 -2.030593,0.544397 -1.589144,0.306013 -1.589144,0.305997 -2.648584,-0.003 -2.648583,-0.003 -1.3243,-0.285548 -1.324284,-0.285548 -2.295452,-1.160703 -2.295437,-1.160703 -0.31438,0.0045 -0.314366,0.0045 -1.816177,0.455096 -1.816163,0.455081 -0.185687,0.118729 -0.185687,0.11873 -0.65625,2.295437 -0.656251,2.295437 -0.515445,1.336754 -0.51543,1.336754 -1.144281,1.798905 -1.144265,1.798888 -0.361455,0.70852 -0.361469,0.70851 -0.166774,2.33586 -0.166773,2.33587 -0.183196,3.35488 -0.183166,3.35486 0.0015,0.78654 0.0015,0.78651 0.520621,1.86207 0.520621,1.86205 0.184568,1.37332 0.184568,1.37332 0.33662,0.65726 0.336605,0.65727 1.724087,2.29543 1.724073,2.29544 0.512,1.12461 0.511999,1.1246 1.313008,1.63245 1.312993,1.63244 v 0.1737 0.17371 l -1.881479,0.11515 -1.881479,0.11515 h -1.551258 -1.551258 l -0.07592,-0.13246 z"
       id="path4842"
       inkscape:connector-curvature="0" />
  </g>
</svg>
